<?xml version="1.0" encoding="UTF-8"?>
<svg id="Layer_1" data-name="Layer 1" xmlns="http://www.w3.org/2000/svg" viewBox="0 0 46 46">
  <defs>
    <style>
      .cls-1 {
        fill: #fff;
        stroke-width: 0px;
      }
    </style>
  </defs>
  <path class="cls-1" d="M23,0C10.31,0,0,10.31,0,23s10.31,23,23,23,23-10.31,23-23S35.69,0,23,0ZM23,2c11.61,0,21,9.39,21,21s-9.39,21-21,21S2,34.61,2,23,11.39,2,23,2ZM32.09,12.04c-.68,0-1.45.16-2.35.48-1.4.5-17.82,7.47-19.68,8.27-1.07.45-3.06,1.3-3.06,3.31,0,1.33.78,2.29,2.32,2.84.83.3,2.79.89,3.94,1.21.48.13,1,.2,1.53.2,1.03,0,2.08-.26,2.89-.71,0,.17,0,.34.02.51.12,1.05.77,2.04,1.73,2.64.63.4,5.76,3.83,6.52,4.38,1.08.77,2.27,1.18,3.44,1.18,2.24,0,2.99-2.31,3.35-3.42.53-1.61,2.49-14.73,2.71-17.04.15-1.58-.51-2.89-1.77-3.49-.47-.23-1.01-.34-1.59-.34ZM32.09,14.04c.28,0,.52.05.73.15.47.23.71.73.64,1.5-.24,2.52-2.2,15.33-2.62,16.61-.36,1.1-.74,2.04-1.45,2.04s-1.5-.25-2.28-.8c-.77-.55-5.91-3.99-6.62-4.44-.62-.39-1.29-1.38-.36-2.33.77-.78,6.59-6.43,7.08-6.93.37-.37.2-.82-.17-.82-.12,0-.27.05-.43.18-.61.5-9.08,6.17-9.82,6.62-.49.3-1.24.52-2.02.52-.33,0-.67-.04-.99-.13-1.13-.31-3.04-.89-3.79-1.16-.73-.26-.99-.51-.99-.96,0-.63.89-1.07,1.84-1.47,1-.42,18.23-7.74,19.58-8.23.62-.23,1.19-.36,1.67-.36Z"/>
</svg>